<?xml version="1.0" encoding="utf-8"?>
<!DOCTYPE svg PUBLIC "-//W3C//DTD SVG 1.0//EN" "http://www.w3.org/TR/2001/REC-SVG-20010904/DTD/svg10.dtd">
<svg version="1.0" xmlns="http://www.w3.org/2000/svg" width="581px" height="430px" viewBox="0 0 581 430" preserveAspectRatio="xMidYMid meet">
 <g fill="#c7a45e">
  <path d="M256.6 265.1 l-4.8 -0.6 2.8 -3 c7.3 -7.8 27 -31.2 35.8 -42.5 15.9 -20.5 15.6 -33.4 -1.1 -41.7 -6.9 -3.4 -7.6 -3.6 -14.9 -3 -10.5 0.8 -12.4 2.2 -12.4 9.3 0 7.5 2.2 13.7 9 25.2 5.7 9.6 5.8 9.7 4.2 12.5 -0.9 1.5 -2.9 3.9 -4.3 5.3 l-2.7 2.6 -5.6 -7.9 c-9.3 -13.1 -10.1 -15.2 -10.1 -27.3 0 -9.6 0.2 -10.9 2.7 -15 3.4 -5.8 7.9 -10 15 -13.9 5 -2.7 6.6 -3.1 13.8 -3.1 6.7 0 8.9 0.4 13.2 2.6 10.2 5.2 17.7 15.5 19.3 26.5 1.4 9.9 -3.9 21.5 -17.6 38.4 -2.2 2.8 -4.6 5.7 -5.2 6.5 -6.4 8.1 -17.3 21.3 -20.4 24.7 -4.2 4.6 -7.7 5.5 -16.7 4.4z"/>
  <path d="M299.4 265.2 c-2.7 -0.9 -7.4 -6.4 -7.4 -8.7 0 -2.2 5.8 -9.5 7.5 -9.5 0.7 0 2.8 1.8 4.6 4 1.9 2.2 5.4 6.3 7.8 9 l4.4 5 -4.5 0 c-2.5 0 -5.8 0.2 -7.4 0.4 -1.6 0.3 -3.9 0.2 -5 -0.2z"/>
 </g>
</svg>