<?xml version="1.0" encoding="utf-8"?>
<!DOCTYPE svg PUBLIC "-//W3C//DTD SVG 1.0//EN" "http://www.w3.org/TR/2001/REC-SVG-20010904/DTD/svg10.dtd">
<svg version="1.0" xmlns="http://www.w3.org/2000/svg" width="828px" height="618px" viewBox="0 0 828 618" preserveAspectRatio="xMidYMid meet">
 <g fill="#efe7db">
  <path d="M0 309 l0 -309 414 0 414 0 0 309 0 309 -414 0 -414 0 0 -309z m179 98.80 c0 -10.80 0.15 -20.70 0.30 -22 0.35 -2.30 0.30 -2.30 -1.10 -2.30 l-1.45 0 0 21.15 c0 11.60 -0.20 21.50 -0.45 22 -0.35 0.70 -0.15 0.85 1.15 0.85 l1.55 0 0 -19.70z m267.35 19 c0.05 -0.05 0.20 -9.80 0.25 -21.70 l0.15 -21.60 -1.10 0 -1.15 0 0 21.20 c0 11.65 -0.15 21.60 -0.35 22.05 -0.25 0.70 -0.10 0.80 0.90 0.50 0.65 -0.20 1.25 -0.40 1.30 -0.45z m92.40 -2.15 c-0.95 -1.60 -1.75 -3.15 -1.75 -3.45 0 -0.30 -0.60 -1.45 -1.35 -2.50 -0.80 -1.10 -1.95 -3.10 -2.60 -4.45 -1.70 -3.45 -4.55 -8.30 -5.55 -9.50 -0.50 -0.55 -2.25 -3.60 -3.90 -6.75 -1.65 -3.15 -3.80 -7.10 -4.80 -8.70 -1 -1.65 -1.95 -3.40 -2.10 -3.95 -0.30 -1 -0.35 -1 -0.85 -0.10 -0.35 0.70 -0.35 1 0.10 1.15 0.30 0.10 1.40 1.80 2.40 3.75 0.95 2 2.15 4.15 2.65 4.85 0.50 0.70 1.95 3.30 3.25 5.75 1.35 2.50 2.95 5.35 3.60 6.40 2.55 4.10 3.15 5.45 3.15 7.35 0 1.60 0.20 1.95 1.10 2.10 1.40 0.20 4.90 6.10 5.25 8.90 0.25 1.80 0.45 2 1.70 2 l1.40 0 -1.70 -2.85z m80.45 -1.50 c0.15 -2.45 0.30 -12.35 0.30 -22 l-0.05 -17.65 -1.20 0 -1.25 0 0 22 c0 21.15 0.05 22 0.95 22 0.80 0 0.95 -0.55 1.25 -4.35z m-17.70 0.35 c0 -1.90 -0.05 -2 -1.60 -2 -1.80 0 -1.05 0.60 -13.75 -11.75 -4.70 -4.60 -9.10 -8.70 -9.75 -9.15 -0.65 -0.45 -4.45 -4 -8.45 -7.95 -8.15 -8.10 -9.55 -9.15 -11.70 -9.10 -1.35 0.10 -1.40 0.10 -0.25 0.30 1.65 0.30 3.85 2.05 8.45 6.60 2.10 2.10 5.85 5.60 8.30 7.80 7.50 6.70 20.80 19.25 24.75 23.35 2.05 2.10 3.80 3.85 3.90 3.85 0.05 0.05 0.10 -0.85 0.10 -1.95z m-372.80 -1.60 c-0.20 -0.35 -0.80 -1.25 -1.35 -1.95 -1.85 -2.60 -2.30 -6.85 -2.35 -22.05 0 -14.05 0 -14.40 -1 -14.40 -1 0 -1 0.35 -1 13.50 0 16.60 0.40 18.90 4.10 23.65 1.45 1.80 2.35 2.50 1.60 1.25z m200.75 -7.20 c3.55 -7.50 3.40 -12.55 -0.60 -20.50 -0.70 -1.40 -1.65 -2.85 -2.15 -3.25 -0.80 -0.65 -0.80 -0.60 -0.10 0.80 1.70 3.35 2.40 7.10 2.40 13.15 0 7.40 -0.60 10.65 -2.50 13.85 l-1.55 2.50 1.55 -1.75 c0.85 -0.95 2.20 -3.10 2.95 -4.80z m-112.25 2.40 c0.10 -5.90 -5.35 -9.40 -21.20 -13.60 -0.95 -0.25 -3.65 -0.95 -6 -1.55 -4.40 -1.10 -11.90 -4.35 -12.95 -5.60 -0.30 -0.40 -0.75 -1.70 -1 -2.90 -0.30 -1.65 -0.50 -2 -0.80 -1.30 -0.45 1.05 0.90 4.90 2.15 6.05 2.85 2.55 12.30 5.95 25.10 9 6.60 1.60 11.70 4.40 12.80 7.05 0.40 0.95 0.70 2.80 0.70 4.10 0 1.80 0.15 2.20 0.60 1.75 0.30 -0.30 0.60 -1.65 0.60 -3z m51.90 -1.55 c-0.35 -2.40 -3.70 -5.60 -8.15 -7.75 -2.05 -0.95 -7.20 -2.65 -11.45 -3.75 -12.70 -3.35 -17.10 -4.95 -19.90 -7.30 -1.05 -0.90 -1.60 -1.80 -1.60 -2.65 0 -0.75 -0.25 -1.70 -0.50 -2.10 -0.70 -1.10 -0.65 2.25 0.05 3.65 0.70 1.35 3 3.85 3.55 3.85 0.25 0 1.25 0.50 2.30 1.15 1.90 1.15 9.80 3.85 14.35 4.90 4.45 1 12.45 3.55 14.75 4.70 3.80 1.95 5.45 4.40 5.55 8.15 l0.05 1.85 0.65 -1.50 c0.35 -0.80 0.50 -2.25 0.35 -3.20z m15.20 3.35 c-3.05 -4.95 -3.50 -16.85 -0.95 -26.10 0.45 -1.55 -0.65 -0.45 -2.05 2 -0.70 1.30 -1.30 2.75 -1.30 3.25 0 0.50 -0.20 1.05 -0.50 1.20 -0.25 0.15 -0.50 2.30 -0.50 4.70 0 4.50 0.80 8.20 2.60 11.80 0.90 1.80 2.80 4.25 3.25 4.25 0.10 0 -0.15 -0.50 -0.55 -1.10z m11.20 -81 c6.50 -7.10 11.50 -12.85 11.50 -13.25 0 -0.25 1.30 -1.80 2.95 -3.45 1.60 -1.60 4.50 -4.95 6.50 -7.45 1.95 -2.45 4.10 -5.10 4.80 -5.85 0.70 -0.75 1.25 -1.55 1.25 -1.80 0 -0.30 0.35 -0.60 0.75 -0.80 0.40 -0.15 0.75 -0.60 0.75 -1 0 -0.35 0.35 -0.80 0.75 -1 0.40 -0.15 1 -0.85 1.25 -1.55 0.25 -0.70 0.65 -1.25 0.90 -1.25 0.55 0 9.10 -10.60 9.10 -11.25 0 -0.15 1.25 -1.55 2.75 -3.05 1.50 -1.55 2.75 -3 2.75 -3.20 0 -0.25 1 -1.65 2.25 -3.15 1.25 -1.55 2.25 -3 2.25 -3.30 0 -0.25 0.30 -0.70 0.65 -0.90 0.30 -0.20 1 -1.25 1.45 -2.25 0.50 -1.05 1.10 -1.90 1.40 -1.90 0.25 0 0.50 -0.30 0.50 -0.65 0 -0.35 0.70 -1.45 1.50 -2.35 0.85 -0.95 1.75 -2.55 2 -3.60 0.30 -1 0.85 -2.15 1.20 -2.55 1.05 -1.05 2.80 -4.70 2.80 -5.85 0 -0.55 0.25 -1 0.50 -1 0.30 0 0.50 -0.45 0.50 -1.05 0 -0.55 0.45 -2.65 0.95 -4.60 1.55 -5.85 2.75 -13.15 2.30 -14.15 -0.25 -0.55 -0.70 -2.40 -1.05 -4.20 -1.75 -9.65 -5.90 -17.80 -12.65 -25.10 -4.15 -4.45 -13.95 -10.35 -20.60 -12.40 -2.90 -0.85 -4.75 -1.05 -11.95 -1.05 -4.70 0 -9.50 0.25 -10.65 0.55 -4.60 1.20 -12.85 5 -14.80 6.80 -0.70 0.65 -1.55 1.20 -1.90 1.20 -0.70 0 -7.65 6.40 -7.65 7 0 0.25 -1.20 2.20 -2.65 4.35 -1.40 2.15 -3.05 4.90 -3.60 6.15 -0.55 1.25 -1.25 2.50 -1.55 2.75 -0.75 0.65 -1.70 3.55 -1.70 5.20 0 0.75 -0.20 1.55 -0.45 1.85 -0.25 0.25 -0.75 2.45 -1.10 4.85 -0.50 3.45 -0.50 4.95 0 6.80 0.30 1.25 0.55 3 0.50 3.80 -0.15 1.70 1.55 8.50 3.05 12.25 2.75 7 8.20 15.90 16.40 26.70 3.25 4.30 3.75 4.75 4.65 4.25 0.55 -0.25 1.20 -1.05 1.45 -1.70 0.25 -0.65 1.05 -1.55 1.75 -2.05 0.70 -0.45 1.25 -1.05 1.25 -1.40 0 -0.30 0.45 -0.85 1 -1.20 0.55 -0.35 1 -0.85 1 -1.15 0 -0.30 0.65 -1.10 1.50 -1.75 0.80 -0.70 2.15 -2.30 3 -3.50 l1.50 -2.25 -2.35 -3 c-8 -10.15 -15.10 -23 -17.45 -31.70 -1.25 -4.55 -1.35 -5.85 -1.40 -14 -0.05 -10.55 -0.05 -10.55 5.25 -12 4.10 -1.15 20.10 -1.65 24.65 -0.75 13.55 2.55 23.40 11.25 25.35 22.25 0.70 3.95 0.30 10.80 -0.75 14.35 -1.05 3.30 -3.75 9.45 -4.90 10.90 -1.65 2.15 -3.40 5 -3.40 5.55 0 0.70 -6.60 9.45 -10.40 13.80 -0.90 1.05 -2.50 2.90 -3.50 4.15 -1 1.25 -2.15 2.45 -2.45 2.65 -0.35 0.20 -0.65 0.60 -0.65 0.85 0 0.25 -0.55 1.05 -1.20 1.80 -0.65 0.70 -1.50 1.70 -1.85 2.15 -0.40 0.45 -1.35 1.65 -2.20 2.65 -0.80 0.95 -2.05 2.50 -2.70 3.35 -0.65 0.85 -1.50 1.55 -1.85 1.55 -0.40 0 -0.90 0.50 -1.15 1.15 -0.25 0.60 -1.30 2 -2.35 3.10 -1.10 1.10 -2.90 3.35 -4.10 5 -1.15 1.65 -3.25 4.20 -4.60 5.70 -1.40 1.45 -2.50 2.75 -2.50 2.90 0 0.25 -6.90 8.60 -8 9.65 -1.95 1.90 -12.50 14.45 -12.50 14.95 0 0.40 3.70 0.55 12 0.55 l12.05 0 1.95 -2.10z m65.50 1.85 c0 -0.30 -8.40 -10.75 -9.20 -11.50 -0.35 -0.25 -1.25 -1.40 -2.05 -2.50 -0.80 -1.10 -3.20 -4 -5.25 -6.50 -2.10 -2.45 -4.45 -5.35 -5.20 -6.35 -0.80 -1.05 -1.55 -1.90 -1.75 -1.90 -0.15 0.05 -1.10 1.05 -2.05 2.35 -0.95 1.25 -2.75 3.45 -4 4.90 -3.20 3.65 -4.10 4.80 -5.35 6.55 l-1.15 1.60 1.10 1.40 c0.60 0.80 2.35 2.95 3.90 4.80 1.50 1.80 3.15 3.90 3.70 4.65 1.70 2.45 3.05 2.70 15.70 2.75 6.35 0 11.60 -0.10 11.60 -0.25z"/>
 </g>
 <g fill="#c4a15e">
  <path d="M172.80 428.75 c-0.35 -1 0 -1.75 0.90 -1.75 0.30 0 0.80 -0.75 1.05 -1.60 0.30 -0.90 0.90 -1.70 1.40 -1.80 0.70 -0.15 0.85 0.20 0.85 1.60 0 1.25 0.20 1.80 0.75 1.80 0.40 0 0.75 0.45 0.75 1 0 0.70 -0.35 1 -1.20 1 -0.65 0 -1.85 0.15 -2.65 0.30 -1.15 0.20 -1.60 0.10 -1.85 -0.55z"/>
  <path d="M440.70 428.65 c-0.90 -0.65 -0.90 -0.70 0.15 -0.95 0.70 -0.20 1.30 -0.95 1.65 -2 0.70 -2.15 2 -2.25 2 -0.20 0 0.85 0.25 1.50 0.50 1.50 0.90 0 0.55 2 -0.35 2.05 -0.50 0.05 -1.35 0.15 -1.95 0.20 -0.55 0.05 -1.45 -0.20 -2 -0.60z"/>
  <path d="M487.85 428.40 l-1.10 -0.90 1.55 0 c1.85 0 2.55 -0.75 4.70 -4.85 1.30 -2.60 1.80 -3.15 2.85 -3.15 l1.25 0 -0.90 1.40 c-2.25 3.40 -3.30 6.60 -2.20 6.60 0.30 0 0.50 0.30 0.50 0.70 0 1.15 -5.20 1.30 -6.65 0.20z"/>
  <path d="M534.55 428.80 c-0.50 -0.55 -0.35 -0.85 0.50 -1.45 0.70 -0.50 0.90 -1 0.65 -1.45 -0.90 -1.45 -0.70 -2.40 0.50 -2.40 1.20 0 1.80 0.80 1.80 2.55 0 0.50 0.35 0.95 0.75 0.95 1.20 0 0.90 1.85 -0.35 2.20 -1.90 0.50 -3.25 0.35 -3.85 -0.40z"/>
  <path d="M541.15 429.10 c-1.10 -0.15 -1.70 -2.10 -0.70 -2.10 0.25 0 0.55 -0.45 0.65 -1.05 0.15 -1 0.15 -1 1.35 0.10 0.65 0.60 1.55 1.15 2 1.20 0.85 0.05 1.05 0.35 1.05 1.45 0 0.70 -1.80 0.85 -4.35 0.40z"/>
  <path d="M552 428.90 c0 -0.25 -0.35 -0.40 -0.75 -0.40 -1.20 0 -0.85 -0.95 0.45 -1.30 0.90 -0.20 1.30 -0.75 1.50 -2 0.40 -2.10 1.60 -2.25 2.05 -0.20 0.20 0.85 0.75 1.75 1.30 2 0.90 0.50 1.35 1.95 0.60 2.05 -1.75 0.25 -5.15 0.15 -5.15 -0.15z"/>
  <path d="M612.85 429.20 c-0.65 -0.70 -0.35 -1.60 0.65 -1.85 0.55 -0.15 1 -0.65 1 -1.10 0 -0.45 0.25 -0.65 0.50 -0.50 0.30 0.15 0.50 -0.15 0.50 -0.75 0 -0.65 0.25 -1 0.65 -0.90 0.85 0.30 1.05 3.60 0.25 4.30 -0.90 0.70 -3.10 1.25 -3.55 0.80z"/>
  <path d="M282.80 427.45 c-6.20 -2.50 -8.30 -3.80 -8.30 -5.15 0 -1.10 0.05 -1.10 4.15 1.15 3.30 1.80 5.30 2.55 9 3.30 0.75 0.15 1.35 0.60 1.35 1 0 1.10 -3.20 0.90 -6.20 -0.30z"/>
  <path d="M480.50 427.60 c0 -0.20 0.45 -0.65 1 -1 0.55 -0.30 1.30 -1.40 1.75 -2.40 0.40 -1 1 -1.70 1.35 -1.60 1 0.35 1.05 2.15 0.15 3.85 -0.65 1.30 -1.10 1.55 -2.50 1.55 -0.95 0 -1.75 -0.15 -1.75 -0.40z"/>
  <path d="M215.35 425.05 c0.75 -1.15 1.50 -2.05 1.70 -2.05 0.25 0 0.35 0.85 0.25 1.90 -0.15 1.65 -0.35 1.85 -1.75 2 l-1.55 0.15 1.35 -2z"/>
  <path d="M327.65 423.95 c-1.95 -1.25 -2.10 -1.95 -0.40 -1.95 1 0 3.75 2 3.75 2.75 0 0.60 -1.90 0.15 -3.35 -0.80z"/>
  <path d="M259.40 421.50 c2.05 -1.90 2.60 -3.65 3.85 -11.60 0.20 -1.30 0.55 -1.90 1.10 -1.90 1.40 0 0.50 7.05 -1.50 11.10 -1.45 3 -1.75 3.40 -3.05 3.40 l-1.50 0 1.10 -1z"/>
  <path d="M598.70 421.75 c-0.20 -0.40 -0.60 -0.75 -1 -0.75 -0.45 0 -0.70 -0.60 -0.70 -1.75 0 -2.10 0.30 -2.15 1.60 -0.50 0.55 0.70 1.45 1.25 2.05 1.25 l1.10 0 -0.15 -17.85 -0.10 -17.90 -1.65 -1.40 -1.60 -1.40 2.75 0.15 c1.50 0.05 3.05 -0.05 3.40 -0.25 1.10 -0.75 1.30 1.15 0.20 2.30 -1 1.05 -1.05 1.65 -1.10 19.55 0 10.15 -0.15 18.65 -0.30 18.90 -0.45 0.75 -4.20 0.45 -4.50 -0.35z"/>
  <path d="M646.50 405.40 c-0.75 -0.35 -4.15 -0.50 -8.75 -0.45 -4.10 0.05 -9.35 -0.05 -11.60 -0.25 -3.65 -0.25 -4.15 -0.40 -4.15 -1.25 0 -0.95 0.40 -1 12.25 -0.85 6.75 0.10 12.25 0.30 12.25 0.55 0 0.20 0.35 0.35 0.75 0.35 0.45 0 0.75 0.45 0.75 1.25 0 0.70 -0.05 1.25 -0.10 1.20 -0.10 0 -0.70 -0.25 -1.40 -0.55z"/>
  <path d="M509.70 393.60 c-1.30 -0.80 2 -6.40 3.45 -5.85 0.60 0.25 0.45 0.85 -0.80 3.30 -1.50 3.05 -1.70 3.20 -2.65 2.55z"/>
  <path d="M263.50 389.10 c0 -3.55 -0.10 -4.05 -1.25 -5.10 -2.25 -2.10 -1.15 -3.60 1.85 -2.55 1.20 0.45 1.65 0.40 1.95 -0.05 0.30 -0.45 0.50 -0.40 0.75 0.25 0.20 0.55 -0.05 1.25 -0.55 1.85 -0.75 0.80 -0.90 1.90 -0.95 5.25 0 3.75 -0.10 4.25 -0.90 4.25 -0.80 0 -0.90 -0.50 -0.90 -3.90z"/>
  <path d="M314 390.75 c0.35 -0.90 0.30 -1.25 -0.10 -1.25 -0.30 0 -0.40 -0.15 -0.25 -0.35 0.20 -0.15 0.10 -0.60 -0.20 -1 -0.45 -0.55 -0.10 -0.65 2 -0.65 3 0 3.20 0.50 1.15 2.90 -1.70 2 -3.30 2.25 -2.60 0.35z"/>
  <path d="M365.70 390.75 c0.20 -0.85 0 -1.50 -0.80 -2.25 l-1.10 -1 1.85 0 c1.50 0 1.85 0.20 1.85 1 0 0.60 0.35 1 0.80 1 0.65 0 0.55 0.25 -0.35 1.25 -1.60 1.65 -2.65 1.65 -2.25 0z"/>
  <path d="M553.50 388.35 c0 -3.30 -0.15 -3.75 -1.45 -5.25 l-1.50 -1.60 1.60 0 c0.90 0 2.10 0.15 2.75 0.30 1.20 0.35 1.50 1.45 0.50 1.85 -0.40 0.20 -0.35 0.30 0.15 0.30 0.50 0.05 0.95 0.60 1.05 1.30 0.20 1 0.15 1.15 -0.40 0.70 -0.60 -0.45 -0.70 0 -0.70 2.75 0 2.95 -0.10 3.30 -1 3.30 -0.90 0 -1 -0.35 -1 -3.65z"/>
  <path d="M178.65 388.75 c-0.15 -0.45 -0.15 -1.70 0 -2.75 0.20 -1.75 0.10 -2 -0.70 -2 -0.70 0 -0.95 0.35 -0.95 1.50 0 1.90 -1.25 2.05 -1.70 0.20 -0.20 -0.70 -0.90 -1.85 -1.60 -2.55 -0.70 -0.70 -1.15 -1.35 -1 -1.50 0.45 -0.45 4.30 -0.75 4.30 -0.35 0 0.25 1.25 0.40 2.75 0.35 2.95 -0.15 3.10 0 2.05 2.15 -0.45 0.75 -0.60 2 -0.45 2.80 0.15 0.85 0.05 1.40 -0.30 1.40 -0.30 0 -0.55 0.35 -0.55 0.75 0 1 -1.45 0.95 -1.85 0z"/>
  <path d="M275.60 387 c0.35 -0.55 1.05 -1.15 1.50 -1.30 0.50 -0.15 0.90 -0.60 0.90 -0.95 0 -0.40 0.40 -0.70 0.90 -0.70 0.45 0 1.45 -0.15 2.25 -0.35 1.10 -0.25 1.35 -0.15 1.35 0.60 0 1.15 -4.30 3.70 -6.20 3.70 -1.20 0 -1.25 -0.10 -0.70 -1z"/>
  <path d="M446.50 385.50 c0 -0.80 -0.20 -1.50 -0.50 -1.50 -0.25 0 -0.50 -0.45 -0.50 -1 0 -0.70 0.45 -1.05 1.75 -1.30 3.10 -0.55 3.45 -0.05 1.90 2.80 -1.60 2.80 -2.65 3.25 -2.65 1z"/>
  <path d="M443 385.40 c0 -0.30 -0.80 -1.35 -1.80 -2.25 l-1.85 -1.65 1.45 0 c3.05 0 3.70 0.45 3.70 2.55 0 1.40 -0.20 1.95 -0.75 1.95 -0.40 0 -0.75 -0.25 -0.75 -0.60z"/>
  <path d="M220.55 383.75 c-0.65 -0.70 -1.35 -1.25 -1.65 -1.25 -0.25 0 -0.30 -0.20 -0.15 -0.50 0.15 -0.25 1 -0.40 1.90 -0.30 0.90 0.15 1.90 0.25 2.25 0.25 0.85 0.05 0.75 1.55 -0.10 1.55 -0.40 0 -0.80 0.35 -0.90 0.75 -0.10 0.55 -0.45 0.40 -1.35 -0.50z"/>
  <path d="M615 384.55 c0 -0.30 -0.55 -0.80 -1.20 -1.15 -0.70 -0.30 -1.35 -0.80 -1.50 -1.15 -0.15 -0.50 3.95 -0.65 19.15 -0.70 10.65 -0.05 19.75 0.05 20.20 0.25 0.45 0.15 0.85 0.60 0.85 1 0 0.60 -2.60 0.70 -15.75 0.70 -13.65 0 -15.75 0.10 -15.75 0.75 0 0.40 -0.20 0.75 -0.50 0.75 -0.25 0 -0.50 -0.20 -0.50 -0.45 0 -0.85 -3.20 -0.95 -4.10 -0.15 -0.60 0.50 -0.90 0.55 -0.90 0.15z"/>
  <path d="M225.40 384.15 c-1.80 -0.25 -2 -2.10 -0.25 -2.20 0.60 -0.05 1.60 -0.15 2.25 -0.20 1.30 -0.15 1.45 0.80 0.30 1.95 -0.40 0.45 -0.80 0.75 -0.85 0.75 -0.05 -0.05 -0.70 -0.20 -1.45 -0.30z"/>
  <path d="M366.25 340.95 c-0.20 -0.30 0.10 -1.05 0.70 -1.65 0.60 -0.60 1.05 -1.30 1.05 -1.50 0 -0.40 6.60 -8.25 12.30 -14.55 1.70 -1.90 3.15 -3.60 3.15 -3.75 0 -0.15 1.10 -1.50 2.50 -2.95 1.35 -1.50 2.40 -2.90 2.25 -3.10 -0.10 -0.20 0.40 -0.70 1.10 -1.20 0.70 -0.45 1.15 -0.95 1.05 -1.10 -0.15 -0.10 0.60 -1.05 1.70 -2 1.10 -1 1.85 -1.90 1.75 -2.05 -0.15 -0.10 0.30 -0.70 1 -1.20 0.70 -0.55 1.15 -1.10 1.05 -1.25 -0.25 -0.25 1.10 -2 3.70 -4.70 1 -1.05 1.70 -2.05 1.55 -2.20 -0.15 -0.15 0 -0.25 0.30 -0.25 0.35 0 0.60 -0.35 0.60 -0.75 0 -0.45 0.50 -0.95 1.15 -1.20 0.60 -0.25 1.55 -1.05 2.10 -1.80 0.55 -0.75 1.70 -2.20 2.50 -3.20 0.85 -0.95 1.80 -2.10 2.10 -2.55 0.35 -0.40 1.20 -1.40 1.90 -2.15 0.70 -0.75 1.25 -1.50 1.25 -1.65 0 -0.15 0.55 -0.90 1.20 -1.60 1.50 -1.70 5.80 -6.65 6.35 -7.35 0.25 -0.25 1.30 -1.55 2.30 -2.85 2.95 -3.60 5.05 -6.60 5.10 -7.05 0 -0.25 0.40 -0.75 0.90 -1.10 0.50 -0.35 0.90 -0.90 0.90 -1.15 0 -0.65 2.10 -4.20 3.55 -6 1.20 -1.55 3.95 -7.55 4.95 -10.95 2.65 -8.70 0.55 -17.45 -5.75 -24 -3.70 -3.90 -10.35 -7.75 -15.25 -8.85 -5.60 -1.25 -7.05 -1.40 -14.20 -1.15 -8.55 0.25 -13.40 1.20 -15.25 3.05 -0.95 0.95 -1.05 1.60 -1.05 7.05 0 6.60 0.45 11 1.15 11.90 0.30 0.35 0.50 1.15 0.50 1.85 0 5 8.90 21.60 16.65 31.10 1.40 1.75 2.85 3.80 3.20 4.65 0.75 1.65 0.30 2.40 -4.05 7.05 -1.15 1.20 -1.95 2.25 -1.85 2.40 0.10 0.10 -0.35 0.65 -1.05 1.20 -0.70 0.50 -1.15 1.10 -1 1.20 0.10 0.15 -0.55 0.85 -1.55 1.60 -0.95 0.75 -1.75 1.65 -1.75 2.05 0 0.40 -0.50 1.05 -1.10 1.50 -0.65 0.40 -1.15 1.05 -1.15 1.40 0 1.20 -1.75 0.90 -2.95 -0.50 -6.05 -7.20 -14.65 -19.90 -18 -26.50 -2.75 -5.50 -5.85 -15.50 -5.80 -18.80 0 -0.90 -0.15 -3.10 -0.30 -4.95 -0.35 -3.50 0.60 -11.70 1.35 -12.20 0.25 -0.15 0.35 -0.45 0.20 -0.65 -0.40 -0.70 1.25 -5.75 2.10 -6.40 0.40 -0.30 0.60 -0.80 0.40 -1.10 -0.15 -0.30 -0.05 -0.55 0.25 -0.55 0.30 0 0.40 -0.20 0.25 -0.50 -0.15 -0.25 -0.05 -0.50 0.25 -0.50 0.30 0 0.40 -0.20 0.25 -0.50 -0.15 -0.25 -0.05 -0.50 0.25 -0.50 0.30 0 0.40 -0.20 0.25 -0.50 -0.15 -0.25 -0.05 -0.50 0.25 -0.50 0.30 0 0.40 -0.20 0.25 -0.50 -0.15 -0.25 -0.05 -0.50 0.25 -0.50 0.30 0 0.40 -0.20 0.25 -0.50 -0.15 -0.25 -0.10 -0.50 0.15 -0.50 0.50 0 2.50 -2.65 2.70 -3.60 0.10 -0.35 0.55 -0.95 1.05 -1.30 0.45 -0.35 0.75 -0.85 0.60 -1.10 -0.30 -0.50 7.05 -7.50 7.90 -7.50 0.35 0 1.20 -0.55 1.90 -1.20 1.45 -1.30 3.80 -2.55 9.20 -4.80 5.65 -2.35 8.60 -2.80 18.50 -2.70 7.65 0.10 9.55 0.25 12.60 1.20 6.75 2.05 16.55 7.90 20.70 12.40 5 5.35 9.30 12.60 10.95 18.30 0.55 1.90 1.20 3.65 1.50 3.80 0.35 0.20 0.40 0.90 0.20 1.65 -0.20 0.90 -0.10 1.35 0.30 1.35 0.35 0 0.50 0.65 0.45 1.65 -0.10 0.90 0 1.90 0.25 2.25 0.55 0.85 0.25 7.70 -0.35 8.50 -0.30 0.35 -0.55 2 -0.55 3.60 0 1.65 -0.20 3 -0.40 3 -0.20 0 -0.25 0.35 -0.10 0.75 0.20 0.40 0.10 0.75 -0.20 0.75 -0.30 0 -0.40 0.45 -0.25 1 0.15 0.60 0 1 -0.35 1 -0.35 0 -0.50 0.35 -0.30 0.75 0.15 0.40 0.05 0.75 -0.15 0.75 -0.25 0 -0.35 0.40 -0.20 0.95 0.10 0.50 -0.05 1.20 -0.45 1.60 -0.35 0.40 -0.75 1.15 -0.80 1.70 -0.25 1.35 -2.10 4.90 -2.80 5.35 -0.30 0.25 -0.35 0.40 -0.05 0.40 0.30 0 0.20 0.20 -0.15 0.40 -0.35 0.25 -0.70 0.95 -0.85 1.55 -0.25 1.35 -1.50 3.40 -2.85 4.70 -0.50 0.50 -0.80 1.10 -0.65 1.35 0.15 0.25 -0.15 0.70 -0.65 0.95 -0.55 0.30 -1.25 1.25 -1.65 2.15 -0.35 0.90 -0.95 1.85 -1.30 2.05 -0.35 0.20 -0.65 0.65 -0.65 0.90 0 0.30 -1 1.75 -2.25 3.30 -1.25 1.50 -2.25 2.90 -2.25 3.15 0 0.20 -1.25 1.65 -2.75 3.20 -1.55 1.55 -2.65 2.80 -2.45 2.80 0.15 0 -0.35 0.75 -1.10 1.70 -0.80 0.90 -2.90 3.50 -4.65 5.70 -1.75 2.25 -3.50 4.15 -3.90 4.30 -0.40 0.15 -0.60 0.50 -0.45 0.75 0.20 0.25 -0.30 0.95 -1 1.50 -0.75 0.60 -1.15 1.05 -0.90 1.05 0.25 0.05 -0.05 0.45 -0.70 1 -0.65 0.50 -1.20 1.15 -1.20 1.35 -0.05 0.20 -0.60 0.95 -1.25 1.65 -0.65 0.70 -2.75 3.30 -4.70 5.75 -2 2.50 -4.85 5.80 -6.40 7.35 -1.55 1.55 -2.75 2.95 -2.65 3.15 0.15 0.25 -4.65 5.70 -11.90 13.65 l-1.95 2.10 -14.25 0 c-9.60 0 -14.35 -0.15 -14.55 -0.55z"/>
  <path d="M434.70 340.80 c-0.85 -0.40 -2 -1.30 -2.50 -2.05 -0.55 -0.75 -2.20 -2.85 -3.70 -4.65 -4.40 -5.30 -6 -7.45 -6 -8 0 -0.30 0.50 -1.10 1.15 -1.75 1.70 -1.80 2.85 -3.35 2.55 -3.35 -0.20 0 0.20 -0.45 0.85 -1 0.65 -0.50 1.05 -0.95 0.90 -1 -0.15 0 0.75 -1.10 2 -2.40 1.25 -1.30 3.40 -3.80 4.70 -5.50 2.80 -3.55 3.15 -3.55 5.90 0 0.90 1.20 3.35 4.20 5.45 6.65 2.05 2.50 4.45 5.40 5.25 6.50 0.80 1.10 1.60 2.10 1.80 2.25 1.15 0.80 10.45 12.90 10.45 13.55 0 0.45 -0.35 1 -0.80 1.15 -0.45 0.15 -6.55 0.30 -13.60 0.30 -9.70 -0.05 -13.25 -0.20 -14.40 -0.70z"/>
 </g>
 <g fill="#201d1b">
  <path d="M237.05 429 c-0.90 -0.20 -2.15 -0.60 -2.75 -0.90 -0.55 -0.25 -2 -0.90 -3.20 -1.40 -2.35 -0.95 -6.10 -4.80 -7.60 -7.65 -1.65 -3.35 -2 -6.80 -2 -20.70 0 -11.35 -0.15 -13.80 -0.75 -14.70 -1 -1.45 -0.45 -1.70 3.55 -1.55 3.55 0.10 4.40 0.75 3 2.15 -0.70 0.70 -0.80 2.55 -0.80 13.65 0.05 14.85 0.45 17.65 3.20 21.80 2.70 4.10 5.05 5.50 11.75 7 6.10 1.40 11.85 -0.05 16.80 -4.15 2.80 -2.35 3.40 -2.50 3.15 -0.95 -0.20 1.55 -4.75 5.05 -8.25 6.45 -2.30 0.90 -4.10 1.15 -8.65 1.25 -3.15 0.10 -6.50 -0.05 -7.45 -0.30z"/>
  <path d="M291 429.25 c-0.40 -0.10 -1.55 -0.30 -2.55 -0.50 -1.25 -0.20 -1.90 -0.60 -2.10 -1.25 -0.30 -1.10 -0.35 -1.10 4.15 0.05 4.75 1.15 16.35 -0.35 18.75 -2.50 0.55 -0.50 1.40 -1.05 1.85 -1.20 1.10 -0.40 3.40 -4 3.40 -5.35 0 -4.20 -4.85 -7.70 -13.50 -9.80 -12.40 -2.95 -21.90 -6.35 -24.90 -8.80 -1.20 -1.05 -2.60 -4.50 -2.60 -6.60 0 -4.90 3.20 -8.05 10.75 -10.65 3.65 -1.25 4.65 -1.35 11.50 -1.35 6.55 0 7.90 0.15 10.75 1.15 4.50 1.60 11.50 5 11.50 5.55 0 0.60 -2.05 3 -2.55 3 -0.20 0 -0.80 -0.75 -1.35 -1.65 -0.65 -1.15 -1.95 -2.15 -4.35 -3.30 -5 -2.35 -8.25 -3.05 -14.50 -3.05 -6.25 0 -10.50 0.90 -13.35 2.75 -1.05 0.70 -2.05 1.25 -2.30 1.25 -0.25 0 -0.85 0.90 -1.35 1.95 -1.15 2.65 -0.70 5.15 1.20 6.55 2.35 1.65 7.75 3.85 12.15 5 13.80 3.50 18.75 5.20 22.40 7.70 2.90 1.95 3.80 3.05 4.75 5.85 2.10 6.20 -2.45 11.60 -12 14.30 -2.35 0.65 -14.10 1.35 -15.75 0.90z"/>
  <path d="M339.50 428.55 c-5.40 -1.20 -13.50 -4.95 -13.50 -6.25 0 -0.15 0.55 -0.30 1.25 -0.30 0.70 0 1.25 0.25 1.25 0.50 0 1.60 12.65 5.50 17.70 5.50 3.50 0 10.10 -0.85 12.05 -1.60 5.50 -2 8.85 -6.25 7.75 -9.65 -0.65 -1.90 -2.55 -3.80 -5.25 -5.15 -2.10 -1.05 -10.30 -3.60 -14.50 -4.55 -4.55 -1.05 -12.45 -3.75 -14.35 -4.90 -1.05 -0.65 -2.05 -1.15 -2.30 -1.15 -0.55 0 -2.85 -2.45 -3.55 -3.80 -0.30 -0.60 -0.60 -2.30 -0.65 -3.75 -0.05 -2.20 0.15 -3.10 1.25 -4.80 1.60 -2.55 2.50 -3.15 7.90 -5.45 4.15 -1.75 4.25 -1.80 11.95 -1.85 7.55 -0.10 7.85 -0.05 12.50 1.55 6.05 2.10 10.20 4.20 10.40 5.25 0.20 0.95 -2.30 3.50 -2.95 3.05 -0.25 -0.15 -0.45 -0.65 -0.45 -1.10 0 -1 -2.40 -3 -5.40 -4.55 -3.45 -1.75 -7.45 -2.55 -12.90 -2.55 -11.70 0 -19.15 3.60 -18.35 8.95 0.65 4.20 4.65 6.15 21.65 10.60 12.70 3.30 18.60 6.90 19.80 12.05 1.30 5.85 -2.50 10.45 -11.25 13.50 -4.25 1.45 -14.45 1.70 -20.05 0.45z"/>
  <path d="M399.50 429 c-6.85 -0.80 -15.25 -5.35 -18.35 -9.95 -1.60 -2.35 -3.10 -6.65 -3.60 -10.35 -0.50 -3.45 -0.15 -10.55 0.50 -11 0.25 -0.15 0.45 -0.65 0.45 -1.15 0 -1.60 2.45 -5.35 4.95 -7.60 3.65 -3.35 4.45 -3.85 8.60 -5.45 8.10 -3.10 18.20 -3.35 24.95 -0.55 2.05 0.85 4 1.55 4.30 1.55 0.95 0 5.60 3.30 6.90 4.85 1.45 1.75 3.15 5.05 4.35 8.60 1.10 3.10 1.30 10.05 0.40 13.25 -1.70 6.15 -5.25 11.20 -9.80 13.90 -6.85 4.05 -13.30 5.10 -23.65 3.90z m11.20 -1.75 c5.90 -0.50 10.60 -3.75 14.15 -9.80 1.95 -3.25 2.65 -6.60 2.65 -12.60 0 -11.15 -5.30 -18.95 -14.35 -21.15 -1.60 -0.35 -4.95 -0.65 -7.40 -0.70 -8 0 -13.35 2.05 -17.85 6.95 -2.50 2.70 -2.90 3.40 -3.70 6.90 -1.25 5.45 -1.15 13.40 0.20 17.25 2.40 6.70 7.15 11.20 13.60 12.80 3.75 0.95 5.45 1 12.70 0.35z"/>
  <path d="M535.85 428.55 c-0.10 -0.55 0 -1.20 0.25 -1.45 0.30 -0.30 -0.35 -1.95 -1.90 -4.55 -1.30 -2.25 -2.50 -4.15 -2.65 -4.25 -0.55 -0.35 -32.05 -0.85 -33 -0.55 -0.55 0.15 -1.20 0.95 -1.55 1.75 -0.35 0.85 -0.80 1.50 -1 1.50 -0.20 0 -0.50 0.40 -0.65 0.95 -0.10 0.50 -0.80 1 -1.50 1.15 l-1.30 0.25 0.80 -1.55 c0.45 -0.85 1.75 -3.10 2.90 -5.05 1.15 -1.90 3.35 -5.85 4.85 -8.75 4.30 -8.20 6.95 -13.05 8.45 -15.50 0.75 -1.25 2.20 -3.90 3.25 -5.90 1.80 -3.55 3.20 -4.95 4.20 -4.35 0.30 0.20 1.10 1.50 1.80 2.90 0.75 1.45 1.70 3.15 2.20 3.85 0.45 0.70 2.25 3.95 4 7.25 1.70 3.30 3.50 6.45 4 7 1.05 1.25 3.95 6.20 5.60 9.55 0.65 1.40 1.70 3.20 2.20 4 0.55 0.80 1.75 3 2.70 4.85 0.90 1.90 2.30 3.90 3 4.55 1.05 0.85 1.25 1.35 0.95 2.20 -0.40 1.05 -1.45 1.55 -1.45 0.75 0 -0.45 -4.70 -0.40 -5.40 0.05 -0.25 0.15 -0.60 -0.15 -0.75 -0.65z m-19.45 -12.65 c15.55 -0.15 14.75 0.40 9.95 -7.25 -0.65 -1.05 -2.25 -3.90 -3.60 -6.40 -1.30 -2.45 -2.75 -5.05 -3.25 -5.75 -0.50 -0.70 -1.70 -2.90 -2.70 -4.85 -1 -2 -2 -3.65 -2.25 -3.65 -0.70 0 -1.55 1.25 -3.30 4.85 -0.90 1.85 -3.80 7.35 -6.45 12.15 -5.90 10.65 -5.95 10.85 -3.70 11.10 0.90 0.10 1.80 0.10 1.95 0.05 0.15 -0.05 6.15 -0.15 13.35 -0.25z"/>
  <path d="M174.65 428.25 c-0.15 -0.45 -0.05 -1.05 0.25 -1.40 0.80 -0.95 0.80 -42.25 0 -43.20 -0.45 -0.55 -0.45 -0.80 0.10 -1.15 0.70 -0.40 5.80 -0.40 6.20 0.05 0.15 0.15 0 1.15 -0.35 2.20 -0.45 1.50 -0.55 7.20 -0.35 22.10 0.15 11.05 0.35 20.20 0.50 20.35 0.15 0.15 7.35 0.30 15.95 0.30 l15.70 0.10 2.10 -1.55 c1.85 -1.35 2.15 -1.40 2.35 -0.65 0.10 0.45 0.10 1.40 -0.10 2.10 l-0.30 1.25 -20.85 0.10 c-18.05 0.10 -20.95 0 -21.20 -0.60z"/>
  <path d="M441.70 428.40 c-0.15 -0.25 0.05 -0.95 0.50 -1.60 0.65 -1.05 0.75 -4.10 0.80 -21.85 0 -20.10 0 -20.70 -1 -21.45 -1.65 -1.25 -0.55 -1.90 2.60 -1.50 1.60 0.15 2.95 0.10 3 -0.10 0.10 -0.25 0.60 -0.10 1.15 0.30 0.95 0.65 0.95 0.75 0.15 1.65 -0.80 0.85 -0.85 2.90 -0.90 21.60 0 14.80 0.15 20.85 0.55 21.35 0.45 0.55 3.50 0.70 16.05 0.70 16 0 16.85 -0.10 18.45 -2.15 1.10 -1.35 2.15 -0.65 1.70 1.10 -0.70 2.70 0.15 2.60 -22.10 2.50 -11.85 -0.05 -20.80 -0.25 -20.95 -0.55z"/>
  <path d="M489.45 428.45 c-0.55 -0.30 -0.50 -0.45 0.15 -0.70 0.40 -0.15 1.20 -1.10 1.70 -2.05 1.45 -2.70 2.80 -2.05 2.25 1.05 -0.25 1.15 -0.65 1.55 -1.90 1.80 -0.85 0.15 -1.85 0.15 -2.20 -0.10z"/>
  <path d="M552.50 428.05 c0 -0.55 0.25 -1.05 0.60 -1.15 0.45 -0.15 0.60 -4.65 0.60 -18.30 0 -13.90 0.15 -18.10 0.60 -18.10 0.35 0 0.70 -0.40 0.80 -0.85 0.10 -0.45 0.15 7.65 0.15 18 0 14.95 0.15 18.95 0.65 19.30 0.85 0.50 -0.05 1.25 -2 1.75 -1.15 0.25 -1.40 0.15 -1.40 -0.65z"/>
  <path d="M597.15 424.15 c-5.60 -5.60 -19.30 -18.50 -25.90 -24.40 -2.50 -2.20 -5.75 -5.25 -7.25 -6.80 -1.50 -1.55 -4 -3.90 -5.50 -5.15 -2.65 -2.30 -2.75 -2.30 -3.10 -1.20 l-0.30 1.15 -0.05 -1.10 c-0.05 -0.65 -0.35 -1.15 -0.80 -1.15 -0.40 0 -0.75 -0.25 -0.75 -0.55 0 -0.35 -0.40 -0.85 -0.85 -1.20 -0.70 -0.50 -0.75 -0.80 -0.25 -1.35 0.80 -1 6.35 -0.60 8.30 0.60 0.75 0.45 4.70 4.10 8.75 8.10 4 3.95 7.80 7.55 8.45 8 0.65 0.45 4.95 4.45 9.55 8.95 4.60 4.50 8.90 8.70 9.55 9.30 0.70 0.60 1.80 1.65 2.45 2.35 0.90 0.90 1.55 1.15 2.50 1 l1.30 -0.30 -0.05 3.85 c-0.05 2.10 -0.30 4.05 -0.60 4.35 -0.35 0.35 -2.05 -1.05 -5.45 -4.45z"/>
  <path d="M614.35 428.30 c-0.15 -0.40 0.05 -1 0.45 -1.30 1.05 -0.95 1.05 -41.30 -0.05 -42.85 -1.10 -1.55 0.10 -2.35 3 -2.05 1.40 0.20 2.30 0.05 2.45 -0.30 0.30 -0.75 1.35 0.75 1.05 1.55 -0.10 0.35 -0.25 4.85 -0.25 10 -0.05 9.30 -0.05 9.40 1 9.25 0.60 -0.05 1.40 0.25 1.80 0.65 1.15 1.10 15.95 1.10 15.50 0 -0.15 -0.50 0.05 -0.75 0.60 -0.75 0.95 0 2.10 0.90 2.10 1.60 0 0.20 -4.70 0.40 -10.45 0.40 l-10.45 0 -0.20 10.90 c-0.10 5.95 -0.10 11.15 0 11.50 0.15 0.45 3.60 0.60 14.95 0.60 16.45 0 16.85 -0.05 18.60 -3.40 l1 -1.85 0.05 2.55 c0 4.40 1.05 4.20 -21.35 4.20 -16.45 0 -19.60 -0.10 -19.80 -0.70z"/>
  <path d="M282.55 426.95 c-1.40 -1.35 -1.10 -1.65 1 -1 0.95 0.25 1.30 0.50 0.75 0.50 -0.60 0.05 -0.80 0.30 -0.60 0.80 0.35 1 0.20 0.95 -1.15 -0.30z"/>
  <path d="M276 423.35 c0 -0.20 -0.25 -0.25 -0.60 -0.05 -0.40 0.25 -0.45 0.10 -0.25 -0.45 0.20 -0.50 0.05 -0.85 -0.25 -0.85 -0.30 0 -0.45 -0.15 -0.30 -0.30 0.35 -0.35 3.20 1.05 3.65 1.80 0.20 0.30 -0.25 0.45 -0.95 0.40 -0.75 -0.05 -1.30 -0.30 -1.30 -0.55z"/>
  <path d="M263.30 409.80 c0.10 -0.80 0.20 -5.20 0.20 -9.85 0 -8.10 0.05 -8.45 1 -8.45 0.95 0 1 0.35 1 7.15 0 8.05 -0.35 10.85 -1.30 10.85 -0.35 0 -0.75 0.40 -0.85 0.90 -0.10 0.45 -0.15 0.20 -0.05 -0.60z"/>
  <path d="M648.50 407.70 c-0.40 -1.10 -1.10 -2 -1.90 -2.35 -2.35 -1.05 -3.70 -3.05 -1.70 -2.50 1.30 0.30 3.40 -1.55 3.80 -3.40 0.55 -2.85 1 -1.05 1.10 4.35 0.10 5.55 -0.35 6.85 -1.30 3.90z"/>
  <path d="M264.40 388.15 c-0.50 -0.10 -0.90 -0.40 -0.90 -0.65 0 -0.25 0.40 -0.55 0.90 -0.65 0.80 -0.20 0.80 -0.25 0 -0.30 -0.50 0 -0.95 -0.40 -0.95 -0.80 -0.10 -1.20 -0.20 -1.45 -0.60 -2.10 -0.60 -0.95 0.05 -1.65 1.40 -1.65 1.45 0 2.05 0.80 1.25 1.75 -0.30 0.35 -0.45 1.55 -0.30 2.70 0.10 1.15 0.20 2 0.15 2 -0.05 -0.05 -0.50 -0.15 -0.95 -0.30z"/>
  <path d="M653.15 386.15 c-0.80 -1.55 -1.35 -1.95 -3.05 -2.30 -4.10 -0.80 -1.80 -2.45 2.70 -1.95 1.50 0.20 1.60 0.35 1.90 2.70 0.45 3.30 -0.30 4.05 -1.55 1.55z"/>
  <path d="M601.30 384.30 c-1.30 -2 -0.30 -3.30 1.65 -2.10 0.50 0.35 0.60 0.25 0.30 -0.25 -0.30 -0.50 -0.25 -0.55 0.20 -0.15 0.70 0.65 0.15 3.70 -0.70 3.70 -0.35 0 -1 -0.55 -1.45 -1.20z"/>
 </g>
</svg>